<svg width="32" height="33" viewBox="0 0 32 33" fill="none" xmlns="http://www.w3.org/2000/svg">
<g id="instagram">
<g id="Group 35">
<path id="Vector" d="M21.0571 4H10.9429C7.10842 4 4 7.10842 4 10.9429V22.0923C4 25.9267 7.10842 29.0352 10.9429 29.0352H21.0571C24.8916 29.0352 28 25.9267 28 22.0923V10.9429C28 7.10842 24.8916 4 21.0571 4Z" stroke="white" stroke-width="1.5" stroke-linecap="round"/>
<path id="Vector_2" d="M16 22.6334C19.3793 22.6334 22.1187 19.8939 22.1187 16.5147C22.1187 13.1354 19.3793 10.396 16 10.396C12.6208 10.396 9.88135 13.1354 9.88135 16.5147C9.88135 19.8939 12.6208 22.6334 16 22.6334Z" stroke="white" stroke-width="1.5" stroke-linecap="round"/>
<path id="Vector_3" d="M23.3252 9.30121C23.8058 9.30121 24.1955 8.91155 24.1955 8.43088C24.1955 7.95021 23.8058 7.56055 23.3252 7.56055C22.8445 7.56055 22.4548 7.95021 22.4548 8.43088C22.4548 8.91155 22.8445 9.30121 23.3252 9.30121Z" stroke="white" stroke-width="1.5"/>
</g>
</g>
</svg>
