<svg width="32" height="33" viewBox="0 0 32 33" fill="none" xmlns="http://www.w3.org/2000/svg">
<g id="linked-in">
<path id="Vector" d="M17.17 12.5498H12.825V28.2648H17.325V21.0648C17.325 19.1548 17.685 17.3198 20.04 17.3198C22.395 17.3198 22.4 19.4898 22.4 21.1848V28.2648H26.9V20.2298C26.9 16.3498 26.075 12.7698 21.495 12.7698C19.805 12.7048 18.17 13.0148 17.26 14.3948C17.2547 14.4072 17.2452 14.4172 17.233 14.423C17.2209 14.4289 17.2071 14.43 17.1942 14.4263C17.1812 14.4226 17.1701 14.4143 17.1629 14.403C17.1557 14.3917 17.1528 14.3781 17.155 14.3648L17.17 12.5498Z" stroke="white" stroke-width="1.5" stroke-linecap="round"/>
<path id="Vector_2" d="M5.45996 12.5498H9.99996V28.2648H5.45996V12.5498Z" stroke="white" stroke-width="1.5" stroke-linecap="round"/>
<path id="Vector_3" d="M7.71993 4.73488C7.19878 4.73291 6.68875 4.88552 6.25434 5.17341C5.81992 5.4613 5.48063 5.87155 5.27937 6.35227C5.07811 6.83299 5.02392 7.3626 5.12365 7.87412C5.22338 8.38564 5.47256 8.8561 5.83967 9.22601C6.20678 9.59591 6.67533 9.84865 7.18608 9.95226C7.69683 10.0559 8.22683 10.0057 8.70907 9.8081C9.1913 9.61049 9.60411 9.27433 9.8953 8.84211C10.1865 8.40989 10.343 7.90103 10.3449 7.37988C10.3476 7.03348 10.2816 6.68999 10.1509 6.3692C10.0202 6.0484 9.82721 5.75666 9.5832 5.51078C9.33918 5.26491 9.04891 5.06976 8.72912 4.93659C8.40933 4.80343 8.06634 4.73487 7.71993 4.73488Z" stroke="white" stroke-width="1.5" stroke-linecap="round"/>
</g>
</svg>
