<svg width="32" height="33" viewBox="0 0 32 33" fill="none" xmlns="http://www.w3.org/2000/svg">
<g id="twitter">
<path id="Vector" d="M27.2449 6.64988C27.2449 6.59988 27.1999 6.56988 27.1599 6.60488C26.3749 7.28488 24.4799 7.83488 24.2399 7.85988C24.2328 7.86306 24.2252 7.8647 24.2174 7.8647C24.2097 7.8647 24.202 7.86306 24.1949 7.85988C22.8049 5.63988 19.5999 6.23988 19.5999 6.23988C14.8899 7.23988 15.4099 11.9999 15.4999 12.4999C15.4999 12.5249 15.4999 12.5449 15.4549 12.5449C10.2149 12.8049 5.63991 7.93488 5.11991 7.35988C5.11475 7.3536 5.10827 7.34854 5.10092 7.34507C5.09357 7.3416 5.08554 7.3398 5.07741 7.3398C5.06928 7.3398 5.06126 7.3416 5.05391 7.34507C5.04656 7.34854 5.04007 7.3536 5.03491 7.35988C4.44688 8.45001 4.26042 9.71205 4.50807 10.9257C4.75573 12.1393 5.42177 13.2273 6.38991 13.9999C6.39821 14.0047 6.4051 14.0117 6.40988 14.02C6.41467 14.0283 6.41719 14.0378 6.41719 14.0474C6.41719 14.057 6.41467 14.0664 6.40988 14.0748C6.4051 14.0831 6.39821 14.09 6.38991 14.0949C5.70703 14.0735 5.03191 13.9436 4.38991 13.7099C4.35991 13.7099 4.32491 13.7099 4.32491 13.7599C4.39491 16.8599 7.43491 18.2599 8.13991 18.5549C8.14992 18.5582 8.15863 18.5645 8.1648 18.5731C8.17098 18.5816 8.1743 18.5919 8.1743 18.6024C8.1743 18.6129 8.17098 18.6232 8.1648 18.6317C8.15863 18.6402 8.14992 18.6466 8.13991 18.6499C7.50812 18.7875 6.85973 18.833 6.21491 18.7849C6.20623 18.7846 6.1976 18.7863 6.18972 18.7899C6.18184 18.7936 6.17493 18.799 6.16957 18.8059C6.1642 18.8127 6.16053 18.8207 6.15885 18.8292C6.15717 18.8377 6.15754 18.8465 6.15991 18.8549C6.79491 21.2449 9.90991 22.2449 10.4699 22.4099C10.4793 22.4119 10.488 22.4163 10.4951 22.4227C10.5023 22.4291 10.5076 22.4372 10.5107 22.4463C10.5137 22.4554 10.5143 22.4651 10.5124 22.4745C10.5105 22.4839 10.5062 22.4927 10.4999 22.4999C8.57491 24.2199 4.77991 24.6749 3.99991 24.7549C3.98955 24.7563 3.97979 24.7606 3.97178 24.7673C3.96378 24.774 3.95785 24.7829 3.9547 24.7928C3.95155 24.8028 3.95131 24.8135 3.95401 24.8236C3.9567 24.8337 3.96222 24.8428 3.96991 24.8499C6.87991 26.8499 14.4999 28.5099 20.3199 23.5349C22.0405 22.0353 23.4001 20.1664 24.297 18.0677C25.194 15.969 25.6052 13.6948 25.4999 11.4149C25.5 11.4066 25.5023 11.3984 25.5068 11.3913C25.5112 11.3843 25.5175 11.3786 25.5249 11.3749C26.5701 10.761 27.441 9.89009 28.0549 8.84488C28.0549 8.79488 28.0549 8.76488 27.9799 8.77988C27.4737 8.95773 26.9273 8.98722 26.4049 8.86488C26.4049 8.86488 27.2599 7.38488 27.2449 6.64988Z" stroke="white" stroke-width="1.5" stroke-linecap="round"/>
</g>
</svg>
