<svg width="32" height="33" viewBox="0 0 32 33" fill="none" xmlns="http://www.w3.org/2000/svg">
<g id="youtube">
<path id="Vector" d="M13.25 20.4402V12.5602C13.2507 12.5278 13.2598 12.4961 13.2765 12.4684C13.2933 12.4406 13.317 12.4177 13.3454 12.4021C13.3737 12.3864 13.4057 12.3784 13.4381 12.3789C13.4705 12.3795 13.5022 12.3885 13.53 12.4052L19.73 16.3452C19.757 16.3611 19.7793 16.3838 19.7948 16.4109C19.8103 16.4381 19.8185 16.4689 19.8185 16.5002C19.8185 16.5315 19.8103 16.5622 19.7948 16.5894C19.7793 16.6166 19.757 16.6393 19.73 16.6552L13.53 20.5952C13.5022 20.6118 13.4705 20.6209 13.4381 20.6214C13.4057 20.622 13.3737 20.614 13.3454 20.5983C13.317 20.5826 13.2933 20.5598 13.2765 20.532C13.2598 20.5042 13.2507 20.4726 13.25 20.4402Z" stroke="white" stroke-width="1.5"/>
<path id="Vector_2" d="M24.245 7.70996H7.75998C5.25813 7.70996 3.22998 9.73811 3.22998 12.24V20.76C3.22998 23.2618 5.25813 25.29 7.75998 25.29H24.245C26.7468 25.29 28.775 23.2618 28.775 20.76V12.24C28.775 9.73811 26.7468 7.70996 24.245 7.70996Z" stroke="white" stroke-width="1.5"/>
</g>
</svg>
