<svg width="2000" height="2000" viewBox="0 0 2000 2000" fill="none" xmlns="http://www.w3.org/2000/svg">
<path d="M1500 527.526C1478.01 516.72 1445.61 517.588 1389 515L1575.82 655.131L1599.27 742.029L1679 789C1672.54 679.18 1657.39 644.759 1629.75 624.6C1582.97 583.64 1555.45 561.686 1500 527.526Z" fill="#2C2E2B"/>
<path d="M1232.16 919.517L1204 517.21C1219.75 490.266 1232.47 483.768 1261.09 485.181L1562.98 669.54L1576.28 705.474L1606 972.637V1070.28L1576.28 1107L1232.16 919.517Z" fill="#4D4C4D"/>
<rect x="634" y="68" width="118" height="118" fill="#3F88E7"/>
<rect x="423" y="220" width="182" height="181" fill="#3F88E7"/>
<rect x="634" y="397" width="71" height="70" fill="#3F88E7"/>
<path d="M971.301 1930.55C726.563 1900.85 632.084 1876.72 503.168 1826.75C495.922 1715.45 505.627 1660.42 550.841 1577C699.716 1621.87 793.254 1638.37 971.301 1658.17C1015.48 1660.17 1056.02 1661.28 1094 1661.35V1931.99C1057.72 1932.09 1017.3 1931.56 971.301 1930.55Z" fill="#971B23"/>
<path d="M439.711 1880.45L402.195 1842.93L421.735 1828.86L413.919 1787.44L385 1703.02L394.379 1568.58L500.675 1442.74L660.901 1356.76L818.001 1302.83L1159.56 1270L1426.86 1235.61L1589.43 1161.36L1616 998L1721.52 1045.68C1731.78 1203.46 1690.82 1309.3 1533.16 1373.96C1428.4 1408.01 1361.68 1407.33 1256.47 1390.37C909.896 1357.33 795.103 1389.49 623.385 1502.93C537.685 1580.8 506.455 1646.98 510.054 1844.5C490.136 1879.64 474.944 1887.98 439.711 1880.45Z" fill="#313131"/>
<path d="M7.24928 1683.2C2.5049 1653.75 1.35111 1636.54 1 1605.05C341.052 1267.7 562.546 1108.05 1024.32 886.87L1131.34 897.811L1111.03 375L1399.28 514.104C1482.04 558.157 1515.34 584.709 1574.26 642.267C1618.14 685.142 1617.78 972.095 1618 998.622L1593 981.43L1575.04 707.911L1572.69 697.633L1556.29 675.87L1268.04 502.381C1243.16 497.685 1230.35 499.124 1211.02 514.104L1244.61 922.037L1570.35 1101.78C1583.19 1094.1 1588.81 1088.48 1593 1073.64V982.211L1618 999.404C1616.48 1064.46 1609.21 1114.52 1593 1171.33C1518.79 1240.88 1405.52 1273.7 1143.84 1286.99C1007.6 1285.71 932.038 1295.08 797.783 1327.63C393.142 1440.94 358.771 1619.12 421.264 1784.01C432.762 1832.73 433.318 1851.25 412.671 1852L118.955 1772.29C65.845 1757.06 41.0417 1738.33 7.24928 1683.2Z" fill="#808080"/>
<path d="M1328 594L1407.12 598.681L1422 924L1375 919.319L1349.93 906.837L1328 594Z" fill="#F4153C"/>
<path d="M1994.18 1396.58C1969.01 1510 1932.68 1564.56 1853.44 1656L1949.61 1465.34V1340.32L1941.01 1293.44C1919.34 1243.61 1902.67 1219.8 1869.86 1180.13C1814.77 1126.17 1782.09 1101.72 1722.09 1063.71L1585.26 985.569L1413.25 921.495L1407 598L1556.34 680.046L1602.47 740.213C1686.82 788.569 1734.08 820.503 1818.26 891.021C1904.93 998.211 1938.14 1066.06 1981.67 1194.98C2002.41 1277.9 2001.69 1321.13 1994.18 1396.58Z" fill="#F4153C"/>
<path d="M1387.03 1900.83C1273.95 1929.68 1179.96 1935.17 971 1930.54V1657.62C1227.68 1669.27 1361.46 1650.91 1585.66 1571.6C1730.49 1516.03 1808.14 1459.38 1949.49 1337C1960.52 1393.63 1964.41 1420.62 1960.55 1466.03C1933.97 1552.89 1906.72 1591.93 1853.1 1658.41C1713.23 1794.73 1605.75 1842.44 1387.03 1900.83Z" fill="#971B23"/>
<path d="M63 1490.81L98.1608 1526C448.922 1249.57 653.055 1107.77 1035 886.4V464.17C1027.17 432.564 1018.81 417.649 975.617 411C547.63 604.043 354.577 764.46 63 1109.24V1490.81Z" fill="#4D4D4D"/>
<path d="M85.9128 984.138C23.7958 1054.36 7.21504 1087.09 2.26726 1124.82L0.0109572 1622.58C0.00691689 1623.47 1.08293 1623.92 1.71548 1623.3L100.022 1525.7C100.427 1525.3 100.422 1524.65 100.001 1524.26C87.2806 1512.58 63.5802 1490.24 64.806 1489.01C66.0556 1487.76 65.3285 1236.27 64.8075 1110.32C64.8065 1110.09 64.894 1109.86 65.0477 1109.68C367.369 752.454 572.4 611.332 972.916 418.432C973.087 418.35 973.286 418.317 973.474 418.339C1006.18 422.225 1018.62 432.997 1030.96 465.8C1031.01 465.916 1031.03 466.042 1031.03 466.165L1026.35 890.208C1026.34 890.731 1026.74 891.17 1027.26 891.215L1133.87 900.416C1134.47 900.468 1134.98 899.982 1134.95 899.38L1113.92 375.083C1113.9 374.744 1113.71 374.43 1113.42 374.258C1071.67 349.731 1046.55 341.901 996.782 347.948C996.685 347.96 996.585 347.987 996.496 348.027C578.225 532.552 379.343 672.419 85.9128 984.138Z" fill="#E3D9D7"/>
<path d="M575.657 1140.23L402.611 1266.45C399.76 1268.53 395.808 1266.16 396.292 1262.67L464.316 771.363C464.471 770.244 465.093 769.242 466.027 768.606L616.933 665.814C619.737 663.904 623.497 666.133 623.165 669.51L577.281 1137.39C577.169 1138.52 576.579 1139.56 575.657 1140.23Z" fill="#7F807F"/>
<path d="M803.867 979.231L631.616 1105.42C628.766 1107.51 624.807 1105.15 625.289 1101.65L693.014 610.36C693.168 609.242 693.787 608.242 694.718 607.605L844.928 504.839C847.731 502.921 851.497 505.148 851.167 508.529L805.484 976.393C805.374 977.526 804.786 978.559 803.867 979.231Z" fill="#7F807F"/>
</svg>
